<svg width="30" height="30" viewBox="0 0 30 30" fill="none" xmlns="http://www.w3.org/2000/svg">
<g clip-path="url(#clip0_5_18)">
<path d="M15 0.75C6.729 0.75 2.16624e-06 6.806 2.16624e-06 14.25C2.16624e-06 16.8525 0.823502 19.373 2.384 21.552C2.0885 24.8205 1.2965 27.247 0.146502 28.3965C-0.00549783 28.5485 -0.0434978 28.781 0.0525022 28.973C0.138002 29.1445 0.312502 29.25 0.500002 29.25C0.523002 29.25 0.546502 29.2485 0.570002 29.245C0.772502 29.2165 5.4765 28.539 8.8785 26.576C10.811 27.3555 12.869 27.75 15 27.75C23.271 27.75 30 21.694 30 14.25C30 6.806 23.271 0.75 15 0.75Z" fill="white"/>
</g>
<defs>
<clipPath id="clip0_5_18">
<rect width="30" height="30" fill="white"/>
</clipPath>
</defs>
</svg>
